<mxfile host="app.diagrams.net" modified="2024-03-09T20:39:19.103Z" agent="Mozilla/5.0 (Windows NT 10.0; Win64; x64) AppleWebKit/537.36 (KHTML, like Gecko) Chrome/122.0.0.0 Safari/537.36" etag="0Lmin60tdL-NbviQTdeT" version="23.1.6" type="github">
  <diagram name="Page-1" id="y0PO6jnoVvhWI_yTiXcg">
    <mxGraphModel dx="955" dy="598" grid="1" gridSize="10" guides="1" tooltips="1" connect="1" arrows="1" fold="1" page="1" pageScale="1" pageWidth="827" pageHeight="1169" math="0" shadow="0">
      <root>
        <mxCell id="0" />
        <mxCell id="1" parent="0" />
        <mxCell id="YawcBsZBdouedZ-4Ub3u-3" style="edgeStyle=orthogonalEdgeStyle;rounded=0;orthogonalLoop=1;jettySize=auto;html=1;entryX=0.5;entryY=0;entryDx=0;entryDy=0;" edge="1" parent="1" source="YawcBsZBdouedZ-4Ub3u-1" target="YawcBsZBdouedZ-4Ub3u-46">
          <mxGeometry relative="1" as="geometry">
            <mxPoint x="100" y="120" as="targetPoint" />
          </mxGeometry>
        </mxCell>
        <mxCell id="YawcBsZBdouedZ-4Ub3u-1" value="เริ่มต้น" style="ellipse;whiteSpace=wrap;html=1;" vertex="1" parent="1">
          <mxGeometry x="40" y="30" width="120" height="60" as="geometry" />
        </mxCell>
        <mxCell id="YawcBsZBdouedZ-4Ub3u-28" value="ใช่" style="text;html=1;align=center;verticalAlign=middle;whiteSpace=wrap;rounded=0;" vertex="1" parent="1">
          <mxGeometry x="100" y="570" width="60" height="30" as="geometry" />
        </mxCell>
        <mxCell id="YawcBsZBdouedZ-4Ub3u-31" value="ใช่" style="text;html=1;align=center;verticalAlign=middle;whiteSpace=wrap;rounded=0;" vertex="1" parent="1">
          <mxGeometry x="110" y="430" width="60" height="30" as="geometry" />
        </mxCell>
        <mxCell id="YawcBsZBdouedZ-4Ub3u-32" style="edgeStyle=orthogonalEdgeStyle;rounded=0;orthogonalLoop=1;jettySize=auto;html=1;entryX=0.5;entryY=0;entryDx=0;entryDy=0;" edge="1" parent="1" source="YawcBsZBdouedZ-4Ub3u-33" target="YawcBsZBdouedZ-4Ub3u-35">
          <mxGeometry relative="1" as="geometry" />
        </mxCell>
        <mxCell id="YawcBsZBdouedZ-4Ub3u-33" value="เชื่อมต่อ Port และ ระบบ GUI controller" style="rounded=0;whiteSpace=wrap;html=1;" vertex="1" parent="1">
          <mxGeometry x="35" y="280" width="130" height="60" as="geometry" />
        </mxCell>
        <mxCell id="YawcBsZBdouedZ-4Ub3u-34" style="edgeStyle=orthogonalEdgeStyle;rounded=0;orthogonalLoop=1;jettySize=auto;html=1;exitX=1;exitY=0.5;exitDx=0;exitDy=0;entryX=1;entryY=0.5;entryDx=0;entryDy=0;" edge="1" parent="1" source="YawcBsZBdouedZ-4Ub3u-35" target="YawcBsZBdouedZ-4Ub3u-38">
          <mxGeometry relative="1" as="geometry">
            <mxPoint x="265" y="260" as="targetPoint" />
          </mxGeometry>
        </mxCell>
        <mxCell id="YawcBsZBdouedZ-4Ub3u-35" value="เชื่อมต่อสำเร็จ" style="rhombus;whiteSpace=wrap;html=1;" vertex="1" parent="1">
          <mxGeometry x="35" y="360" width="130" height="80" as="geometry" />
        </mxCell>
        <mxCell id="YawcBsZBdouedZ-4Ub3u-36" value="ไม่" style="text;html=1;align=center;verticalAlign=middle;whiteSpace=wrap;rounded=0;" vertex="1" parent="1">
          <mxGeometry x="130" y="290" width="60" height="30" as="geometry" />
        </mxCell>
        <mxCell id="YawcBsZBdouedZ-4Ub3u-37" style="edgeStyle=orthogonalEdgeStyle;rounded=0;orthogonalLoop=1;jettySize=auto;html=1;exitX=0.5;exitY=1;exitDx=0;exitDy=0;entryX=0.5;entryY=0;entryDx=0;entryDy=0;" edge="1" parent="1" source="YawcBsZBdouedZ-4Ub3u-38" target="YawcBsZBdouedZ-4Ub3u-33">
          <mxGeometry relative="1" as="geometry" />
        </mxCell>
        <mxCell id="YawcBsZBdouedZ-4Ub3u-38" value="แสดงสถานะ &lt;br&gt;Status : Waiting" style="rounded=0;whiteSpace=wrap;html=1;" vertex="1" parent="1">
          <mxGeometry x="35" y="200" width="130" height="60" as="geometry" />
        </mxCell>
        <mxCell id="YawcBsZBdouedZ-4Ub3u-39" value="ไม่" style="text;html=1;align=center;verticalAlign=middle;whiteSpace=wrap;rounded=0;" vertex="1" parent="1">
          <mxGeometry x="130" y="360" width="60" height="30" as="geometry" />
        </mxCell>
        <mxCell id="YawcBsZBdouedZ-4Ub3u-40" style="edgeStyle=orthogonalEdgeStyle;rounded=0;orthogonalLoop=1;jettySize=auto;html=1;entryX=0.5;entryY=0;entryDx=0;entryDy=0;" edge="1" parent="1" source="YawcBsZBdouedZ-4Ub3u-41" target="YawcBsZBdouedZ-4Ub3u-44">
          <mxGeometry relative="1" as="geometry" />
        </mxCell>
        <mxCell id="YawcBsZBdouedZ-4Ub3u-41" value="แสดงสถานะ &lt;br&gt;Status : Ready" style="rounded=0;whiteSpace=wrap;html=1;" vertex="1" parent="1">
          <mxGeometry x="35" y="470" width="130" height="60" as="geometry" />
        </mxCell>
        <mxCell id="YawcBsZBdouedZ-4Ub3u-42" style="edgeStyle=orthogonalEdgeStyle;rounded=0;orthogonalLoop=1;jettySize=auto;html=1;entryX=0.504;entryY=-0.057;entryDx=0;entryDy=0;entryPerimeter=0;" edge="1" parent="1" source="YawcBsZBdouedZ-4Ub3u-35" target="YawcBsZBdouedZ-4Ub3u-41">
          <mxGeometry relative="1" as="geometry" />
        </mxCell>
        <mxCell id="YawcBsZBdouedZ-4Ub3u-43" style="edgeStyle=orthogonalEdgeStyle;rounded=0;orthogonalLoop=1;jettySize=auto;html=1;exitX=1;exitY=0.5;exitDx=0;exitDy=0;entryX=1;entryY=0.5;entryDx=0;entryDy=0;" edge="1" parent="1" source="YawcBsZBdouedZ-4Ub3u-44" target="YawcBsZBdouedZ-4Ub3u-41">
          <mxGeometry relative="1" as="geometry" />
        </mxCell>
        <mxCell id="YawcBsZBdouedZ-4Ub3u-50" style="edgeStyle=orthogonalEdgeStyle;rounded=0;orthogonalLoop=1;jettySize=auto;html=1;exitX=0.5;exitY=1;exitDx=0;exitDy=0;entryX=0.5;entryY=0;entryDx=0;entryDy=0;" edge="1" parent="1" source="YawcBsZBdouedZ-4Ub3u-44" target="YawcBsZBdouedZ-4Ub3u-49">
          <mxGeometry relative="1" as="geometry" />
        </mxCell>
        <mxCell id="YawcBsZBdouedZ-4Ub3u-44" value="กดปุ่ม START" style="rhombus;whiteSpace=wrap;html=1;" vertex="1" parent="1">
          <mxGeometry x="30" y="550" width="140" height="80" as="geometry" />
        </mxCell>
        <mxCell id="YawcBsZBdouedZ-4Ub3u-45" value="ไม่" style="text;html=1;align=center;verticalAlign=middle;whiteSpace=wrap;rounded=0;" vertex="1" parent="1">
          <mxGeometry x="130" y="550" width="60" height="30" as="geometry" />
        </mxCell>
        <mxCell id="YawcBsZBdouedZ-4Ub3u-47" style="edgeStyle=orthogonalEdgeStyle;rounded=0;orthogonalLoop=1;jettySize=auto;html=1;entryX=0.5;entryY=0;entryDx=0;entryDy=0;" edge="1" parent="1" source="YawcBsZBdouedZ-4Ub3u-46" target="YawcBsZBdouedZ-4Ub3u-38">
          <mxGeometry relative="1" as="geometry" />
        </mxCell>
        <mxCell id="YawcBsZBdouedZ-4Ub3u-46" value="ไปที่ตำแหน่ง Position 0 ทั้ง 6 แกน" style="rounded=0;whiteSpace=wrap;html=1;" vertex="1" parent="1">
          <mxGeometry x="35" y="120" width="130" height="60" as="geometry" />
        </mxCell>
        <mxCell id="YawcBsZBdouedZ-4Ub3u-48" value="ใช่" style="text;html=1;align=center;verticalAlign=middle;whiteSpace=wrap;rounded=0;" vertex="1" parent="1">
          <mxGeometry x="110" y="620" width="60" height="30" as="geometry" />
        </mxCell>
        <mxCell id="YawcBsZBdouedZ-4Ub3u-171" value="" style="edgeStyle=orthogonalEdgeStyle;rounded=0;orthogonalLoop=1;jettySize=auto;html=1;" edge="1" parent="1" source="YawcBsZBdouedZ-4Ub3u-49" target="YawcBsZBdouedZ-4Ub3u-170">
          <mxGeometry relative="1" as="geometry" />
        </mxCell>
        <mxCell id="YawcBsZBdouedZ-4Ub3u-49" value="ทำงานวนซ้ำในฟังชั่น&amp;nbsp; main loop" style="rounded=0;whiteSpace=wrap;html=1;" vertex="1" parent="1">
          <mxGeometry x="35" y="660" width="130" height="60" as="geometry" />
        </mxCell>
        <mxCell id="YawcBsZBdouedZ-4Ub3u-56" style="edgeStyle=orthogonalEdgeStyle;rounded=0;orthogonalLoop=1;jettySize=auto;html=1;entryX=0.5;entryY=0;entryDx=0;entryDy=0;" edge="1" parent="1" source="YawcBsZBdouedZ-4Ub3u-51" target="YawcBsZBdouedZ-4Ub3u-55">
          <mxGeometry relative="1" as="geometry" />
        </mxCell>
        <mxCell id="YawcBsZBdouedZ-4Ub3u-175" style="edgeStyle=orthogonalEdgeStyle;rounded=0;orthogonalLoop=1;jettySize=auto;html=1;entryX=0;entryY=0.5;entryDx=0;entryDy=0;" edge="1" parent="1" source="YawcBsZBdouedZ-4Ub3u-51" target="YawcBsZBdouedZ-4Ub3u-82">
          <mxGeometry relative="1" as="geometry" />
        </mxCell>
        <mxCell id="YawcBsZBdouedZ-4Ub3u-51" value="แกนใดๆ มีค่า&lt;br&gt;มากกว่าปัจจุบัน" style="rhombus;whiteSpace=wrap;html=1;" vertex="1" parent="1">
          <mxGeometry x="30" y="930" width="140" height="80" as="geometry" />
        </mxCell>
        <mxCell id="YawcBsZBdouedZ-4Ub3u-54" style="edgeStyle=orthogonalEdgeStyle;rounded=0;orthogonalLoop=1;jettySize=auto;html=1;entryX=0.5;entryY=0;entryDx=0;entryDy=0;" edge="1" parent="1" source="YawcBsZBdouedZ-4Ub3u-52" target="YawcBsZBdouedZ-4Ub3u-51">
          <mxGeometry relative="1" as="geometry" />
        </mxCell>
        <mxCell id="YawcBsZBdouedZ-4Ub3u-52" value="- อ่านค่าแกนจากการป้อนค่าของผู้ใช้ ของ Jog&lt;br&gt;- รับค่า Scale จากส่วนของ Jog" style="rounded=0;whiteSpace=wrap;html=1;" vertex="1" parent="1">
          <mxGeometry x="35" y="850" width="130" height="60" as="geometry" />
        </mxCell>
        <mxCell id="YawcBsZBdouedZ-4Ub3u-89" style="edgeStyle=orthogonalEdgeStyle;rounded=0;orthogonalLoop=1;jettySize=auto;html=1;entryX=0.5;entryY=0;entryDx=0;entryDy=0;" edge="1" parent="1" source="YawcBsZBdouedZ-4Ub3u-55" target="YawcBsZBdouedZ-4Ub3u-90">
          <mxGeometry relative="1" as="geometry">
            <mxPoint x="100.99999999999989" y="1130" as="targetPoint" />
          </mxGeometry>
        </mxCell>
        <mxCell id="YawcBsZBdouedZ-4Ub3u-55" value="สั่งมอเตอร์หมุนตามแกนใดๆ ตามค่า Position &lt;br&gt;ที่ได้รับ" style="rounded=0;whiteSpace=wrap;html=1;" vertex="1" parent="1">
          <mxGeometry x="35" y="1030" width="130" height="60" as="geometry" />
        </mxCell>
        <mxCell id="YawcBsZBdouedZ-4Ub3u-57" value="ใช่" style="text;html=1;align=center;verticalAlign=middle;whiteSpace=wrap;rounded=0;" vertex="1" parent="1">
          <mxGeometry x="106" y="1000" width="60" height="30" as="geometry" />
        </mxCell>
        <mxCell id="YawcBsZBdouedZ-4Ub3u-58" value="ไม่" style="text;html=1;align=center;verticalAlign=middle;whiteSpace=wrap;rounded=0;" vertex="1" parent="1">
          <mxGeometry x="131" y="930" width="60" height="30" as="geometry" />
        </mxCell>
        <mxCell id="YawcBsZBdouedZ-4Ub3u-70" style="edgeStyle=orthogonalEdgeStyle;rounded=0;orthogonalLoop=1;jettySize=auto;html=1;exitX=1;exitY=0.5;exitDx=0;exitDy=0;entryX=0;entryY=0.5;entryDx=0;entryDy=0;" edge="1" parent="1" target="YawcBsZBdouedZ-4Ub3u-69">
          <mxGeometry relative="1" as="geometry">
            <mxPoint x="340" y="870" as="sourcePoint" />
          </mxGeometry>
        </mxCell>
        <mxCell id="YawcBsZBdouedZ-4Ub3u-96" value="" style="edgeStyle=orthogonalEdgeStyle;rounded=0;orthogonalLoop=1;jettySize=auto;html=1;" edge="1" parent="1" source="YawcBsZBdouedZ-4Ub3u-76" target="YawcBsZBdouedZ-4Ub3u-78">
          <mxGeometry relative="1" as="geometry" />
        </mxCell>
        <mxCell id="YawcBsZBdouedZ-4Ub3u-99" value="" style="edgeStyle=orthogonalEdgeStyle;rounded=0;orthogonalLoop=1;jettySize=auto;html=1;" edge="1" parent="1" source="YawcBsZBdouedZ-4Ub3u-76" target="YawcBsZBdouedZ-4Ub3u-98">
          <mxGeometry relative="1" as="geometry" />
        </mxCell>
        <mxCell id="YawcBsZBdouedZ-4Ub3u-76" value="อัพโหลด G-Code" style="rhombus;whiteSpace=wrap;html=1;" vertex="1" parent="1">
          <mxGeometry x="355" y="930" width="140" height="80" as="geometry" />
        </mxCell>
        <mxCell id="YawcBsZBdouedZ-4Ub3u-77" value="ไม่" style="text;html=1;align=center;verticalAlign=middle;whiteSpace=wrap;rounded=0;" vertex="1" parent="1">
          <mxGeometry x="455" y="930" width="60" height="30" as="geometry" />
        </mxCell>
        <mxCell id="YawcBsZBdouedZ-4Ub3u-97" value="" style="edgeStyle=orthogonalEdgeStyle;rounded=0;orthogonalLoop=1;jettySize=auto;html=1;" edge="1" parent="1" source="YawcBsZBdouedZ-4Ub3u-78" target="YawcBsZBdouedZ-4Ub3u-79">
          <mxGeometry relative="1" as="geometry" />
        </mxCell>
        <mxCell id="YawcBsZBdouedZ-4Ub3u-101" value="" style="edgeStyle=orthogonalEdgeStyle;rounded=0;orthogonalLoop=1;jettySize=auto;html=1;" edge="1" parent="1" source="YawcBsZBdouedZ-4Ub3u-78" target="YawcBsZBdouedZ-4Ub3u-100">
          <mxGeometry relative="1" as="geometry" />
        </mxCell>
        <mxCell id="YawcBsZBdouedZ-4Ub3u-78" value="อัพโหลด M-Code" style="rhombus;whiteSpace=wrap;html=1;" vertex="1" parent="1">
          <mxGeometry x="510" y="930" width="140" height="80" as="geometry" />
        </mxCell>
        <mxCell id="YawcBsZBdouedZ-4Ub3u-118" style="edgeStyle=orthogonalEdgeStyle;rounded=0;orthogonalLoop=1;jettySize=auto;html=1;" edge="1" parent="1" source="YawcBsZBdouedZ-4Ub3u-79" target="YawcBsZBdouedZ-4Ub3u-112">
          <mxGeometry relative="1" as="geometry" />
        </mxCell>
        <mxCell id="YawcBsZBdouedZ-4Ub3u-124" style="edgeStyle=orthogonalEdgeStyle;rounded=0;orthogonalLoop=1;jettySize=auto;html=1;exitX=0.5;exitY=0;exitDx=0;exitDy=0;entryX=1;entryY=0.5;entryDx=0;entryDy=0;" edge="1" parent="1" source="YawcBsZBdouedZ-4Ub3u-79" target="YawcBsZBdouedZ-4Ub3u-49">
          <mxGeometry relative="1" as="geometry" />
        </mxCell>
        <mxCell id="YawcBsZBdouedZ-4Ub3u-79" value="Go to home Location" style="rhombus;whiteSpace=wrap;html=1;" vertex="1" parent="1">
          <mxGeometry x="670" y="930" width="140" height="80" as="geometry" />
        </mxCell>
        <mxCell id="YawcBsZBdouedZ-4Ub3u-80" value="ไม่" style="text;html=1;align=center;verticalAlign=middle;whiteSpace=wrap;rounded=0;" vertex="1" parent="1">
          <mxGeometry x="615" y="930" width="60" height="30" as="geometry" />
        </mxCell>
        <mxCell id="YawcBsZBdouedZ-4Ub3u-81" value="ไม่" style="text;html=1;align=center;verticalAlign=middle;whiteSpace=wrap;rounded=0;" vertex="1" parent="1">
          <mxGeometry x="300" y="930" width="60" height="30" as="geometry" />
        </mxCell>
        <mxCell id="YawcBsZBdouedZ-4Ub3u-95" value="" style="edgeStyle=orthogonalEdgeStyle;rounded=0;orthogonalLoop=1;jettySize=auto;html=1;" edge="1" parent="1" source="YawcBsZBdouedZ-4Ub3u-82" target="YawcBsZBdouedZ-4Ub3u-76">
          <mxGeometry relative="1" as="geometry" />
        </mxCell>
        <mxCell id="YawcBsZBdouedZ-4Ub3u-82" value="แกนใดๆ มีค่า&lt;br&gt;น้อยกว่าปัจจุบัน" style="rhombus;whiteSpace=wrap;html=1;" vertex="1" parent="1">
          <mxGeometry x="190" y="930" width="140" height="80" as="geometry" />
        </mxCell>
        <mxCell id="YawcBsZBdouedZ-4Ub3u-83" value="ใช่" style="text;html=1;align=center;verticalAlign=middle;whiteSpace=wrap;rounded=0;" vertex="1" parent="1">
          <mxGeometry x="260" y="1000" width="60" height="30" as="geometry" />
        </mxCell>
        <mxCell id="YawcBsZBdouedZ-4Ub3u-107" value="" style="edgeStyle=orthogonalEdgeStyle;rounded=0;orthogonalLoop=1;jettySize=auto;html=1;" edge="1" parent="1" source="YawcBsZBdouedZ-4Ub3u-84" target="YawcBsZBdouedZ-4Ub3u-102">
          <mxGeometry relative="1" as="geometry" />
        </mxCell>
        <mxCell id="YawcBsZBdouedZ-4Ub3u-84" value="สั่งมอเตอร์หมุนตามแกนใดๆ ตามค่า Position &lt;br&gt;ที่ได้รับ" style="rounded=0;whiteSpace=wrap;html=1;" vertex="1" parent="1">
          <mxGeometry x="195" y="1030" width="130" height="60" as="geometry" />
        </mxCell>
        <mxCell id="YawcBsZBdouedZ-4Ub3u-85" style="edgeStyle=orthogonalEdgeStyle;rounded=0;orthogonalLoop=1;jettySize=auto;html=1;exitX=0;exitY=0.5;exitDx=0;exitDy=0;entryX=0;entryY=1;entryDx=0;entryDy=0;" edge="1" parent="1" source="YawcBsZBdouedZ-4Ub3u-83" target="YawcBsZBdouedZ-4Ub3u-83">
          <mxGeometry relative="1" as="geometry" />
        </mxCell>
        <mxCell id="YawcBsZBdouedZ-4Ub3u-94" style="edgeStyle=orthogonalEdgeStyle;rounded=0;orthogonalLoop=1;jettySize=auto;html=1;entryX=0;entryY=0.5;entryDx=0;entryDy=0;" edge="1" parent="1" source="YawcBsZBdouedZ-4Ub3u-87" target="YawcBsZBdouedZ-4Ub3u-49">
          <mxGeometry relative="1" as="geometry">
            <Array as="points">
              <mxPoint x="15" y="690" />
            </Array>
          </mxGeometry>
        </mxCell>
        <mxCell id="YawcBsZBdouedZ-4Ub3u-87" value="" style="ellipse;whiteSpace=wrap;html=1;aspect=fixed;" vertex="1" parent="1">
          <mxGeometry x="6" y="1120" width="20" height="20" as="geometry" />
        </mxCell>
        <mxCell id="YawcBsZBdouedZ-4Ub3u-93" value="" style="edgeStyle=orthogonalEdgeStyle;rounded=0;orthogonalLoop=1;jettySize=auto;html=1;" edge="1" parent="1" source="YawcBsZBdouedZ-4Ub3u-90" target="YawcBsZBdouedZ-4Ub3u-87">
          <mxGeometry relative="1" as="geometry" />
        </mxCell>
        <mxCell id="YawcBsZBdouedZ-4Ub3u-90" value="" style="ellipse;whiteSpace=wrap;html=1;aspect=fixed;" vertex="1" parent="1">
          <mxGeometry x="90" y="1120" width="20" height="20" as="geometry" />
        </mxCell>
        <mxCell id="YawcBsZBdouedZ-4Ub3u-106" value="" style="edgeStyle=orthogonalEdgeStyle;rounded=0;orthogonalLoop=1;jettySize=auto;html=1;" edge="1" parent="1" source="YawcBsZBdouedZ-4Ub3u-98" target="YawcBsZBdouedZ-4Ub3u-103">
          <mxGeometry relative="1" as="geometry" />
        </mxCell>
        <mxCell id="YawcBsZBdouedZ-4Ub3u-98" value="สั่งให้ Board ควบคุมอ่าน การทำงานของ G-Code" style="rounded=0;whiteSpace=wrap;html=1;" vertex="1" parent="1">
          <mxGeometry x="355" y="1030" width="130" height="60" as="geometry" />
        </mxCell>
        <mxCell id="YawcBsZBdouedZ-4Ub3u-105" value="" style="edgeStyle=orthogonalEdgeStyle;rounded=0;orthogonalLoop=1;jettySize=auto;html=1;" edge="1" parent="1" source="YawcBsZBdouedZ-4Ub3u-100" target="YawcBsZBdouedZ-4Ub3u-104">
          <mxGeometry relative="1" as="geometry" />
        </mxCell>
        <mxCell id="YawcBsZBdouedZ-4Ub3u-100" value="สั่งให้ Board ควบคุมอ่าน การทำงานของ G-Code" style="rounded=0;whiteSpace=wrap;html=1;" vertex="1" parent="1">
          <mxGeometry x="515" y="1030" width="130" height="60" as="geometry" />
        </mxCell>
        <mxCell id="YawcBsZBdouedZ-4Ub3u-108" style="edgeStyle=orthogonalEdgeStyle;rounded=0;orthogonalLoop=1;jettySize=auto;html=1;exitX=0;exitY=0.5;exitDx=0;exitDy=0;entryX=1;entryY=0.5;entryDx=0;entryDy=0;" edge="1" parent="1" source="YawcBsZBdouedZ-4Ub3u-102" target="YawcBsZBdouedZ-4Ub3u-90">
          <mxGeometry relative="1" as="geometry" />
        </mxCell>
        <mxCell id="YawcBsZBdouedZ-4Ub3u-102" value="" style="ellipse;whiteSpace=wrap;html=1;aspect=fixed;" vertex="1" parent="1">
          <mxGeometry x="250" y="1120" width="20" height="20" as="geometry" />
        </mxCell>
        <mxCell id="YawcBsZBdouedZ-4Ub3u-109" style="edgeStyle=orthogonalEdgeStyle;rounded=0;orthogonalLoop=1;jettySize=auto;html=1;entryX=1;entryY=0.5;entryDx=0;entryDy=0;" edge="1" parent="1" source="YawcBsZBdouedZ-4Ub3u-103" target="YawcBsZBdouedZ-4Ub3u-102">
          <mxGeometry relative="1" as="geometry" />
        </mxCell>
        <mxCell id="YawcBsZBdouedZ-4Ub3u-103" value="" style="ellipse;whiteSpace=wrap;html=1;aspect=fixed;" vertex="1" parent="1">
          <mxGeometry x="410" y="1120" width="20" height="20" as="geometry" />
        </mxCell>
        <mxCell id="YawcBsZBdouedZ-4Ub3u-110" style="edgeStyle=orthogonalEdgeStyle;rounded=0;orthogonalLoop=1;jettySize=auto;html=1;entryX=1;entryY=0.5;entryDx=0;entryDy=0;" edge="1" parent="1" source="YawcBsZBdouedZ-4Ub3u-104" target="YawcBsZBdouedZ-4Ub3u-103">
          <mxGeometry relative="1" as="geometry" />
        </mxCell>
        <mxCell id="YawcBsZBdouedZ-4Ub3u-104" value="" style="ellipse;whiteSpace=wrap;html=1;aspect=fixed;" vertex="1" parent="1">
          <mxGeometry x="570" y="1120" width="20" height="20" as="geometry" />
        </mxCell>
        <mxCell id="YawcBsZBdouedZ-4Ub3u-116" value="" style="edgeStyle=orthogonalEdgeStyle;rounded=0;orthogonalLoop=1;jettySize=auto;html=1;" edge="1" parent="1" source="YawcBsZBdouedZ-4Ub3u-112" target="YawcBsZBdouedZ-4Ub3u-115">
          <mxGeometry relative="1" as="geometry" />
        </mxCell>
        <mxCell id="YawcBsZBdouedZ-4Ub3u-112" value="ตั้งค่า Position ทั้ง 6 แกน เป็นค่า 0" style="rounded=0;whiteSpace=wrap;html=1;" vertex="1" parent="1">
          <mxGeometry x="675" y="1030" width="130" height="60" as="geometry" />
        </mxCell>
        <mxCell id="YawcBsZBdouedZ-4Ub3u-117" style="edgeStyle=orthogonalEdgeStyle;rounded=0;orthogonalLoop=1;jettySize=auto;html=1;entryX=1;entryY=0.5;entryDx=0;entryDy=0;" edge="1" parent="1" source="YawcBsZBdouedZ-4Ub3u-115" target="YawcBsZBdouedZ-4Ub3u-104">
          <mxGeometry relative="1" as="geometry" />
        </mxCell>
        <mxCell id="YawcBsZBdouedZ-4Ub3u-115" value="" style="ellipse;whiteSpace=wrap;html=1;aspect=fixed;" vertex="1" parent="1">
          <mxGeometry x="730" y="1120" width="20" height="20" as="geometry" />
        </mxCell>
        <mxCell id="YawcBsZBdouedZ-4Ub3u-119" value="ใช่" style="text;html=1;align=center;verticalAlign=middle;whiteSpace=wrap;rounded=0;" vertex="1" parent="1">
          <mxGeometry x="430" y="1000" width="60" height="30" as="geometry" />
        </mxCell>
        <mxCell id="YawcBsZBdouedZ-4Ub3u-120" value="ใช่" style="text;html=1;align=center;verticalAlign=middle;whiteSpace=wrap;rounded=0;" vertex="1" parent="1">
          <mxGeometry x="590" y="1000" width="60" height="30" as="geometry" />
        </mxCell>
        <mxCell id="YawcBsZBdouedZ-4Ub3u-121" value="ใช่" style="text;html=1;align=center;verticalAlign=middle;whiteSpace=wrap;rounded=0;" vertex="1" parent="1">
          <mxGeometry x="750" y="1000" width="60" height="30" as="geometry" />
        </mxCell>
        <mxCell id="YawcBsZBdouedZ-4Ub3u-122" value="ไม่" style="text;html=1;align=center;verticalAlign=middle;whiteSpace=wrap;rounded=0;" vertex="1" parent="1">
          <mxGeometry x="740" y="890" width="60" height="30" as="geometry" />
        </mxCell>
        <mxCell id="YawcBsZBdouedZ-4Ub3u-173" style="edgeStyle=orthogonalEdgeStyle;rounded=0;orthogonalLoop=1;jettySize=auto;html=1;entryX=0.5;entryY=0;entryDx=0;entryDy=0;" edge="1" parent="1" source="YawcBsZBdouedZ-4Ub3u-170" target="YawcBsZBdouedZ-4Ub3u-52">
          <mxGeometry relative="1" as="geometry" />
        </mxCell>
        <mxCell id="YawcBsZBdouedZ-4Ub3u-170" value="กดปุ่ม STOP หรือ &lt;br&gt;การเชื่อมต่อ GUI &lt;br&gt;และ แขนกล ไม่ถูกต้อง" style="rhombus;whiteSpace=wrap;html=1;" vertex="1" parent="1">
          <mxGeometry x="30" y="740" width="140" height="80" as="geometry" />
        </mxCell>
        <mxCell id="YawcBsZBdouedZ-4Ub3u-179" style="edgeStyle=orthogonalEdgeStyle;rounded=0;orthogonalLoop=1;jettySize=auto;html=1;entryX=1;entryY=0.5;entryDx=0;entryDy=0;" edge="1" parent="1" source="YawcBsZBdouedZ-4Ub3u-178" target="YawcBsZBdouedZ-4Ub3u-46">
          <mxGeometry relative="1" as="geometry">
            <mxPoint x="350" y="140" as="targetPoint" />
            <Array as="points">
              <mxPoint x="310" y="150" />
            </Array>
          </mxGeometry>
        </mxCell>
        <mxCell id="YawcBsZBdouedZ-4Ub3u-182" value="" style="edgeStyle=orthogonalEdgeStyle;rounded=0;orthogonalLoop=1;jettySize=auto;html=1;" edge="1" parent="1" source="YawcBsZBdouedZ-4Ub3u-170" target="YawcBsZBdouedZ-4Ub3u-178">
          <mxGeometry relative="1" as="geometry">
            <mxPoint x="340" y="780" as="targetPoint" />
            <mxPoint x="170" y="780" as="sourcePoint" />
          </mxGeometry>
        </mxCell>
        <mxCell id="YawcBsZBdouedZ-4Ub3u-178" value="" style="ellipse;whiteSpace=wrap;html=1;aspect=fixed;" vertex="1" parent="1">
          <mxGeometry x="300" y="770" width="20" height="20" as="geometry" />
        </mxCell>
      </root>
    </mxGraphModel>
  </diagram>
</mxfile>
